<svg version="1.1" id="Layer_1" xmlns="http://www.w3.org/2000/svg" xmlns:xlink="http://www.w3.org/1999/xlink" x="0px" y="0px"
	 width="100%" viewBox="0 0 512 512" enable-background="new 0 0 512 512" xml:space="preserve">
<path fill="#000000" opacity="1.000000" stroke="none" 
	d="
M513.000000,277.000000 
	C513.000000,355.592773 513.000000,434.185547 513.000000,513.000000 
	C436.645905,513.000000 360.291626,513.000000 283.132019,512.700562 
	C282.969421,511.945099 283.554474,511.351471 284.263702,511.054352 
	C291.671631,507.950958 299.528046,505.634491 306.415039,501.641998 
	C315.346466,496.464325 322.906525,489.364105 328.368225,479.963867 
	C336.707581,468.121918 341.151031,455.306122 340.905823,440.539032 
	C341.728607,425.712708 339.094971,412.179932 331.061707,399.603119 
	C319.510376,379.390076 302.191162,367.539886 280.362823,362.760834 
	C279.794098,359.131348 279.313721,356.065826 278.895172,352.599457 
	C278.697388,351.614227 278.297058,351.052582 278.198700,350.442261 
	C275.596222,334.296295 268.600128,320.085785 258.975769,306.652100 
	C257.516174,304.683228 256.270447,302.958832 254.856064,301.386047 
	C241.041260,286.023926 224.793579,274.333954 204.939896,267.907227 
	C191.654358,263.606598 178.068634,262.693268 164.221634,262.917999 
	C150.114075,263.146973 136.836990,266.589447 124.204002,272.440643 
	C105.623810,281.046387 90.216057,293.579041 78.633919,311.053253 
	C77.558617,312.631897 76.738602,314.018707 76.055748,315.470062 
	C72.366585,323.311096 68.098953,330.957275 65.293396,339.105377 
	C63.808678,343.417389 63.055717,347.201569 57.632027,348.213257 
	C39.781734,354.557587 25.628197,365.184235 15.072303,380.930084 
	C8.910110,389.120483 5.421362,398.156128 2.946483,407.675659 
	C2.716725,408.559387 1.668303,409.230286 1.000003,410.000000 
	C1.000000,365.979095 1.000000,321.958221 1.468657,277.468353 
	C21.520615,276.999390 41.103912,276.999390 60.686623,276.999390 
	C60.686623,263.366302 60.686623,250.314102 60.686623,237.000000 
	C40.582470,237.000000 20.791235,237.000000 1.000000,237.000000 
	C1.000000,158.406281 1.000000,79.812576 1.000000,1.000000 
	C79.354095,1.000000 157.708389,1.000000 236.530457,1.468657 
	C237.054276,11.957604 237.110336,21.977896 237.092590,32.461819 
	C237.018768,42.185181 237.018768,51.444916 237.018768,60.690582 
	C250.633087,60.690582 263.684753,60.690582 276.833618,60.690582 
	C276.833618,50.921700 276.833618,41.459938 276.905914,31.534578 
	C276.985474,21.047321 276.992737,11.023661 277.000000,1.000000 
	C355.593719,1.000000 434.187408,1.000000 513.000000,1.000000 
	C513.000000,79.354095 513.000000,157.708389 512.531372,236.531036 
	C492.479218,236.999374 472.895782,236.999374 453.313660,236.999374 
	C453.313660,250.631027 453.313660,263.683105 453.313660,277.000000 
	C473.417847,277.000000 493.208923,277.000000 513.000000,277.000000 
M121.309593,178.219315 
	C120.953926,178.944687 120.567307,179.656677 120.247314,180.397446 
	C116.430122,189.234146 112.622849,198.075134 108.127197,207.287460 
	C105.740585,217.912842 103.353973,228.538223 100.679916,240.443298 
	C115.876541,233.287079 129.763947,228.111816 144.615982,225.868698 
	C145.506805,225.734146 146.490723,224.220901 146.887100,223.148132 
	C148.732346,218.153931 150.385986,213.088959 152.740372,207.725525 
	C158.772369,198.482605 164.804367,189.239685 171.169128,179.358475 
	C172.854599,177.685287 174.428619,175.878342 176.246368,174.363937 
	C181.747513,169.780838 187.343155,165.311157 193.600983,160.837723 
	C193.968613,160.501678 194.294662,160.099243 194.709824,159.839050 
	C218.835571,144.719269 244.942642,138.952209 273.219818,142.931137 
	C293.760681,145.821472 312.188110,153.410538 328.234283,166.651230 
	C331.719818,169.527359 335.332184,172.249771 338.992706,175.740234 
	C339.656830,176.649078 340.213196,177.666321 341.001709,178.450027 
	C348.968811,186.368530 355.470276,195.362381 360.101807,205.571045 
	C363.430298,212.907669 366.166351,220.513077 369.022064,228.819931 
	C370.014496,236.677704 371.284546,244.512634 371.933868,252.398651 
	C372.891510,264.028717 371.284485,275.507751 368.280914,287.263367 
	C363.241882,305.738800 354.079315,321.895905 340.350616,336.122375 
	C337.659943,338.521301 334.969269,340.920227 331.880920,343.673767 
	C343.257324,352.089569 352.432861,361.019501 359.665375,371.864197 
	C360.052460,372.444611 363.104187,372.196259 363.980316,371.357239 
	C374.030396,361.732635 383.071869,351.253601 390.694641,338.810455 
	C391.447144,337.385468 392.157227,335.936188 392.958679,334.539276 
	C401.297150,320.005676 407.233856,304.588531 410.811768,287.607452 
	C413.770721,267.739014 414.296204,247.869690 410.953552,227.204239 
	C408.614899,219.043335 407.020081,210.569458 403.751099,202.799988 
	C399.581024,192.889084 394.058167,183.547379 389.004242,173.244934 
	C380.326935,159.285965 369.946075,146.822525 356.466949,136.092621 
	C354.706451,134.631744 353.016479,133.074631 351.174713,131.724609 
	C327.801117,114.591805 301.730164,103.708900 272.902222,101.252663 
	C251.441513,99.424149 229.937225,100.863930 209.128937,107.880318 
	C190.338028,114.216469 173.144592,123.272575 157.269897,136.216003 
	C149.807861,143.799286 142.345825,151.382568 134.264328,159.265778 
	C130.160370,165.474182 126.056412,171.682571 121.309593,178.219315 
M31.647398,143.140503 
	C31.879232,143.377457 32.074482,143.673492 32.348133,143.842926 
	C47.197845,153.036774 62.021835,162.273758 76.988899,171.272751 
	C77.900803,171.821030 80.728058,170.950378 81.352692,169.934006 
	C87.012642,160.724350 92.380287,151.335068 98.121780,141.375229 
	C99.030815,140.077972 99.939850,138.780716 100.792366,137.564117 
	C83.316772,126.870628 66.033134,116.294601 48.744595,105.715569 
	C42.047569,116.589066 35.701557,126.907005 29.338160,137.214218 
	C27.775736,139.744980 26.966158,141.999832 31.647398,143.140503 
M350.410095,85.055244 
	C359.082336,90.376244 367.754578,95.697250 376.542389,101.089149 
	C387.006927,84.175819 397.323425,67.558975 407.482239,50.846291 
	C407.840088,50.257561 406.943573,48.227196 406.106232,47.694130 
	C395.468353,40.921978 384.734161,34.301212 373.446472,27.282486 
	C362.682465,44.876457 352.180756,62.041721 341.622131,79.300026 
	C344.623993,81.402046 347.149139,83.170258 350.410095,85.055244 
M434.630035,342.071381 
	C427.381134,353.366760 420.132233,364.662140 412.444031,376.642029 
	C430.064575,387.428131 447.468292,398.081451 465.001862,408.814270 
	C472.502075,396.509003 479.441803,385.123352 486.443481,373.636047 
	C480.562592,370.015137 475.326782,366.805450 470.104828,363.573456 
	C458.524353,356.406067 446.950867,349.227448 434.630035,342.071381 
M173.066147,70.393791 
	C164.264252,55.187904 155.462357,39.982014 146.460342,24.430412 
	C134.280869,31.510008 122.606552,38.295963 110.864723,45.121162 
	C121.261467,63.169094 131.332001,80.650757 141.420792,98.164108 
	C153.607758,91.103188 165.423019,84.257614 177.100174,77.492065 
	C175.695862,74.957626 174.601151,72.981918 173.066147,70.393791 
M424.947052,156.665680 
	C428.787079,163.526672 432.627075,170.387680 436.454224,177.225693 
	C454.427734,166.830444 471.802612,156.781418 489.513397,146.538132 
	C482.486603,134.370773 475.712921,122.641693 468.896606,110.838844 
	C450.867065,121.261299 433.366791,131.377792 415.794098,141.536133 
	C418.857574,146.621765 421.693909,151.330322 424.947052,156.665680 
z"/>
<path fill="#5A9FF5" opacity="1.000000" stroke="none" 
	d="
M328.047089,480.108337 
	C322.906525,489.364105 315.346466,496.464325 306.415039,501.641998 
	C299.528046,505.634491 291.671631,507.950958 284.263702,511.054352 
	C283.554474,511.351471 282.969421,511.945099 282.663391,512.700562 
	C211.312439,513.000000 139.624878,513.000000 67.803696,512.699280 
	C67.195084,511.961243 66.781822,511.248779 66.236176,511.126373 
	C46.356297,506.665894 30.349754,496.204102 18.293055,479.855225 
	C20.262058,479.403717 21.894941,479.025818 23.527935,479.025360 
	C123.123680,478.997253 222.719437,478.993958 322.315155,479.046265 
	C324.226013,479.047272 326.136444,479.738922 328.047089,480.108337 
z"/>
<path fill="#73C8CA" opacity="1.000000" stroke="none" 
	d="
M1.000000,237.468658 
	C20.791235,237.000000 40.582470,237.000000 60.686623,237.000000 
	C60.686623,250.314102 60.686623,263.366302 60.686623,276.999390 
	C41.103912,276.999390 21.520615,276.999390 1.468657,276.999695 
	C1.000000,263.979095 1.000000,250.958206 1.000000,237.468658 
z"/>
<path fill="#73C8CA" opacity="1.000000" stroke="none" 
	d="
M513.000000,276.531342 
	C493.208923,277.000000 473.417847,277.000000 453.313660,277.000000 
	C453.313660,263.683105 453.313660,250.631027 453.313660,236.999374 
	C472.895782,236.999374 492.479218,236.999374 512.531372,236.999695 
	C513.000000,250.020889 513.000000,263.041779 513.000000,276.531342 
z"/>
<path fill="#64B0E3" opacity="1.000000" stroke="none" 
	d="
M1.000003,410.375000 
	C1.668303,409.230286 2.716725,408.559387 2.946483,407.675659 
	C5.421362,398.156128 8.910110,389.120483 15.592157,381.012451 
	C18.530893,380.852631 20.855619,380.988495 23.180449,380.990265 
	C44.795319,381.006744 66.410583,380.944275 88.024460,381.092499 
	C90.033302,381.106293 92.033272,382.413605 93.801086,383.478638 
	C87.589882,384.485931 81.455292,384.485992 75.670967,385.909454 
	C60.314613,389.688507 49.916779,399.500916 43.435539,413.911499 
	C40.756790,413.548523 38.477509,413.052917 36.194950,413.037323 
	C24.463766,412.957001 12.731735,413.000031 1.000000,413.000000 
	C1.000000,412.250000 1.000000,411.500000 1.000003,410.375000 
z"/>
<path fill="#60AAEA" opacity="1.000000" stroke="none" 
	d="
M1.000000,413.468658 
	C12.731735,413.000031 24.463766,412.957001 36.194950,413.037323 
	C38.477509,413.052917 40.756790,413.548523 43.499676,414.160278 
	C43.932133,414.666595 43.902493,414.835297 43.705345,415.170959 
	C43.331902,415.580780 43.170376,415.850250 43.029572,416.571777 
	C41.169270,427.259552 41.120220,437.354401 45.408226,447.035583 
	C42.037273,447.377655 39.077263,447.928223 36.112148,447.957245 
	C25.131302,448.064606 14.148774,447.999908 2.976686,447.649445 
	C2.190996,447.199371 1.595498,447.099670 1.000000,447.000000 
	C1.000000,435.979095 1.000000,424.958221 1.000000,413.468658 
z"/>
<path fill="#000000" opacity="1.000000" stroke="none" 
	d="
M1.000000,447.468658 
	C1.595498,447.099670 2.190996,447.199371 2.905261,448.043030 
	C5.816545,460.268219 10.663380,470.769928 17.956985,480.104950 
	C30.349754,496.204102 46.356297,506.665894 66.236176,511.126373 
	C66.781822,511.248779 67.195084,511.961243 67.335037,512.699280 
	C45.073158,513.000000 23.146320,513.000000 1.000000,513.000000 
	C1.000000,491.312927 1.000000,469.625122 1.000000,447.468658 
z"/>
<path fill="#8BF19E" opacity="1.000000" stroke="none" 
	d="
M237.166397,31.998186 
	C237.110336,21.977896 237.054276,11.957604 236.999115,1.468657 
	C250.020889,1.000000 263.041779,1.000000 276.531342,1.000000 
	C276.992737,11.023661 276.985474,21.047321 276.447815,31.535019 
	C263.000427,31.998764 250.083420,31.998474 237.166397,31.998186 
z"/>
<path fill="#6FC2D0" opacity="1.000000" stroke="none" 
	d="
M78.952522,310.891205 
	C90.216057,293.579041 105.623810,281.046387 124.204002,272.440643 
	C136.836990,266.589447 150.114075,263.146973 164.221634,262.917999 
	C178.068634,262.693268 191.654358,263.606598 204.939896,267.907227 
	C224.793579,274.333954 241.041260,286.023926 254.856064,301.386047 
	C256.270447,302.958832 257.516174,304.683228 258.620026,306.817078 
	C255.840073,307.864380 253.285461,308.894196 250.719681,308.922760 
	C236.389252,309.082428 222.055862,308.954254 207.724258,309.046783 
	C205.442856,309.061493 203.165466,309.695770 200.508606,310.014709 
	C189.221024,305.145020 177.877151,303.263916 165.902359,303.893402 
	C154.315598,304.502472 143.831573,307.971283 133.815231,313.491608 
	C131.769012,312.766479 129.897217,312.062958 128.021011,312.050964 
	C113.570587,311.958374 99.119057,312.040619 84.668602,311.950714 
	C82.761116,311.938843 80.857780,311.260742 78.952522,310.891205 
z"/>
<path fill="#80DFB1" opacity="1.000000" stroke="none" 
	d="
M157.889923,135.964462 
	C173.144592,123.272575 190.338028,114.216469 209.128937,107.880318 
	C229.937225,100.863930 251.441513,99.424149 272.902222,101.252663 
	C301.730164,103.708900 327.801117,114.591805 351.174713,131.724609 
	C353.016479,133.074631 354.706451,134.631744 356.163910,136.451538 
	C354.532288,136.871643 353.203674,136.986099 351.875092,136.986328 
	C289.503265,136.996689 227.131409,137.008118 164.759613,136.955093 
	C162.469437,136.953140 160.179810,136.309219 157.889923,135.964462 
z"/>
<path fill="#5DA5F0" opacity="1.000000" stroke="none" 
	d="
M18.293055,479.855225 
	C10.663380,470.769928 5.816545,460.268219 3.095452,448.393433 
	C14.148774,447.999908 25.131302,448.064606 36.112148,447.957245 
	C39.077263,447.928223 42.037273,447.377655 45.572765,447.357422 
	C47.408211,449.902466 48.413319,452.355103 49.974785,454.378357 
	C59.690910,466.967682 72.937691,472.931091 88.485474,472.904968 
	C148.694672,472.803741 208.903732,472.397034 269.111725,471.956116 
	C284.505402,471.843353 299.423309,456.740540 300.625671,441.000183 
	C314.333618,441.000214 327.583405,441.000519 340.833221,441.000824 
	C341.151031,455.306122 336.707581,468.121918 328.368225,479.963867 
	C326.136444,479.738922 324.226013,479.047272 322.315155,479.046265 
	C222.719437,478.993958 123.123680,478.997253 23.527935,479.025360 
	C21.894941,479.025818 20.262058,479.403717 18.293055,479.855225 
z"/>
<path fill="#7DDAB7" opacity="1.000000" stroke="none" 
	d="
M157.579910,136.090240 
	C160.179810,136.309219 162.469437,136.953140 164.759613,136.955093 
	C227.131409,137.008118 289.503265,136.996689 351.875092,136.986328 
	C353.203674,136.986099 354.532288,136.871643 356.386169,136.749680 
	C369.946075,146.822525 380.326935,159.285965 388.633636,173.637634 
	C385.130859,174.353546 382.000946,174.928635 378.866150,174.956223 
	C365.540253,175.073547 352.212921,175.028641 338.886108,175.042969 
	C335.332184,172.249771 331.719818,169.527359 328.234283,166.651230 
	C312.188110,153.410538 293.760681,145.821472 273.219818,142.931137 
	C244.942642,138.952209 218.835571,144.719269 194.709824,159.839050 
	C194.294662,160.099243 193.968613,160.501678 192.737900,160.630325 
	C175.820633,160.281952 159.765747,160.188522 143.712875,159.956848 
	C140.765686,159.914322 137.826614,159.310562 134.883789,158.965851 
	C142.345825,151.382568 149.807861,143.799286 157.579910,136.090240 
z"/>
<path fill="#66B3E1" opacity="1.000000" stroke="none" 
	d="
M278.833374,353.000305 
	C279.313721,356.065826 279.794098,359.131348 280.362823,362.760834 
	C302.191162,367.539886 319.510376,379.390076 330.585571,399.611969 
	C310.350281,399.985535 290.534637,399.942871 270.720184,400.080017 
	C268.809906,400.093231 266.907288,401.222626 264.537323,401.906128 
	C256.378387,401.930115 248.683243,401.881805 240.870346,401.678284 
	C240.580521,401.326141 240.385162,401.155914 240.094086,400.547974 
	C240.016373,384.663605 240.479248,369.214752 237.624832,353.999939 
	C245.558746,354.000031 253.037323,354.127747 260.509277,353.959991 
	C266.621399,353.822876 272.725647,353.333527 278.833374,353.000305 
z"/>
<path fill="#87EAA6" opacity="1.000000" stroke="none" 
	d="
M350.042206,84.996857 
	C347.149139,83.170258 344.623993,81.402046 341.622131,79.300026 
	C352.180756,62.041721 362.682465,44.876457 373.446472,27.282486 
	C384.734161,34.301212 395.468353,40.921978 406.106232,47.694130 
	C406.943573,48.227196 407.840088,50.257561 407.482239,50.846291 
	C397.323425,67.558975 387.006927,84.175819 376.542389,101.089149 
	C367.754578,95.697250 359.082336,90.376244 350.042206,84.996857 
z"/>
<path fill="#66B4E0" opacity="1.000000" stroke="none" 
	d="
M435.002258,342.062378 
	C446.950867,349.227448 458.524353,356.406067 470.104828,363.573456 
	C475.326782,366.805450 480.562592,370.015137 486.443481,373.636047 
	C479.441803,385.123352 472.502075,396.509003 465.001862,408.814270 
	C447.468292,398.081451 430.064575,387.428131 412.444031,376.642029 
	C420.132233,364.662140 427.381134,353.366760 435.002258,342.062378 
z"/>
<path fill="#87EAA6" opacity="1.000000" stroke="none" 
	d="
M173.286285,70.699997 
	C174.601151,72.981918 175.695862,74.957626 177.100174,77.492065 
	C165.423019,84.257614 153.607758,91.103188 141.420792,98.164108 
	C131.332001,80.650757 121.261467,63.169094 110.864723,45.121162 
	C122.606552,38.295963 134.280869,31.510008 146.460342,24.430412 
	C155.462357,39.982014 164.264252,55.187904 173.286285,70.699997 
z"/>
<path fill="#7EDCB5" opacity="1.000000" stroke="none" 
	d="
M424.738647,156.352295 
	C421.693909,151.330322 418.857574,146.621765 415.794098,141.536133 
	C433.366791,131.377792 450.867065,121.261299 468.896606,110.838844 
	C475.712921,122.641693 482.486603,134.370773 489.513397,146.538132 
	C471.802612,156.781418 454.427734,166.830444 436.454224,177.225693 
	C432.627075,170.387680 428.787079,163.526672 424.738647,156.352295 
z"/>
<path fill="#73C8CA" opacity="1.000000" stroke="none" 
	d="
M368.953217,286.890686 
	C371.284485,275.507751 372.891510,264.028717 371.933868,252.398651 
	C371.284546,244.512634 370.014496,236.677704 369.552429,228.409576 
	C383.666260,227.999130 397.249695,227.999039 410.833130,227.998932 
	C414.296204,247.869690 413.770721,267.739014 409.987183,287.815491 
	C397.670105,288.015625 386.177155,288.058044 374.685547,287.950256 
	C372.771637,287.932343 370.863831,287.260406 368.953217,286.890686 
z"/>
<path fill="#79D2BF" opacity="1.000000" stroke="none" 
	d="
M410.893341,227.601593 
	C397.249695,227.999039 383.666260,227.999130 369.624756,227.998901 
	C366.166351,220.513077 363.430298,212.907669 360.101807,205.571045 
	C355.470276,195.362381 348.968811,186.368530 341.001709,178.450027 
	C340.213196,177.666321 339.656830,176.649078 338.939392,175.391602 
	C352.212921,175.028641 365.540253,175.073547 378.866150,174.956223 
	C382.000946,174.928635 385.130859,174.353546 388.690735,173.995331 
	C394.058167,183.547379 399.581024,192.889084 403.751099,202.799988 
	C407.020081,210.569458 408.614899,219.043335 410.893341,227.601593 
z"/>
<path fill="#6CBDD5" opacity="1.000000" stroke="none" 
	d="
M368.617065,287.077026 
	C370.863831,287.260406 372.771637,287.932343 374.685547,287.950256 
	C386.177155,288.058044 397.670105,288.015625 409.638519,288.032959 
	C407.233856,304.588531 401.297150,320.005676 392.958679,334.539276 
	C392.157227,335.936188 391.447144,337.385468 390.144348,338.642365 
	C387.578217,337.983704 385.566711,337.090302 383.545837,337.068542 
	C371.251404,336.936096 358.954468,337.051636 346.659454,336.949768 
	C344.761047,336.934052 342.868408,336.224548 340.973083,335.835907 
	C354.079315,321.895905 363.241882,305.738800 368.617065,287.077026 
z"/>
<path fill="#67B5DE" opacity="1.000000" stroke="none" 
	d="
M94.037369,383.120361 
	C92.033272,382.413605 90.033302,381.106293 88.024460,381.092499 
	C66.410583,380.944275 44.795319,381.006744 23.180449,380.990265 
	C20.855619,380.988495 18.530893,380.852631 15.686262,380.696655 
	C25.628197,365.184235 39.781734,354.557587 57.766045,348.553223 
	C60.519070,349.563843 62.760036,350.869049 65.019836,350.902496 
	C78.289688,351.098969 91.563934,350.998596 104.783463,351.376770 
	C103.098114,361.503357 101.466011,371.251526 99.492500,381.004578 
	C98.100677,381.617584 97.050262,382.225708 95.676628,382.907043 
	C94.914734,383.026978 94.476051,383.073669 94.037369,383.120361 
z"/>
<path fill="#6BBCD7" opacity="1.000000" stroke="none" 
	d="
M278.895172,352.599426 
	C272.725647,353.333527 266.621399,353.822876 260.509277,353.959991 
	C253.037323,354.127747 245.558746,354.000031 237.546204,353.619385 
	C234.267334,347.252441 231.987473,340.996521 228.685593,335.336884 
	C222.117279,324.078430 211.888107,316.573273 200.886215,310.043579 
	C203.165466,309.695770 205.442856,309.061493 207.724258,309.046783 
	C222.055862,308.954254 236.389252,309.082428 250.719681,308.922760 
	C253.285461,308.894196 255.840073,307.864380 258.755554,307.131897 
	C268.600128,320.085785 275.596222,334.296295 278.198700,350.442261 
	C278.297058,351.052582 278.697388,351.614227 278.895172,352.599426 
z"/>
<path fill="#62ACE8" opacity="1.000000" stroke="none" 
	d="
M265.001129,401.833862 
	C266.907288,401.222626 268.809906,400.093231 270.720184,400.080017 
	C290.534637,399.942871 310.350281,399.985535 330.641724,399.969391 
	C339.094971,412.179932 341.728607,425.712708 340.905823,440.539032 
	C327.583405,441.000519 314.333618,441.000214 300.552856,440.546021 
	C301.401306,421.095337 289.271729,408.078796 273.996674,403.537079 
	C271.086639,402.671814 268.004089,402.386688 265.001129,401.833862 
z"/>
<path fill="#6BBBD8" opacity="1.000000" stroke="none" 
	d="
M104.836700,350.998291 
	C91.563934,350.998596 78.289688,351.098969 65.019836,350.902496 
	C62.760036,350.869049 60.519070,349.563843 58.135391,348.506165 
	C63.055717,347.201569 63.808678,343.417389 65.293396,339.105377 
	C68.098953,330.957275 72.366585,323.311096 76.055748,315.470062 
	C76.738602,314.018707 77.558617,312.631897 78.633919,311.053253 
	C80.857780,311.260742 82.761116,311.938843 84.668602,311.950714 
	C99.119057,312.040619 113.570587,311.958374 128.021011,312.050964 
	C129.897217,312.062958 131.769012,312.766479 133.500900,313.643188 
	C119.949600,323.404694 109.925331,335.291992 104.836700,350.998291 
z"/>
<path fill="#80DEB3" opacity="1.000000" stroke="none" 
	d="
M31.013931,142.833099 
	C26.966158,141.999832 27.775736,139.744980 29.338160,137.214218 
	C35.701557,126.907005 42.047569,116.589066 48.744595,105.715569 
	C66.033134,116.294601 83.316772,126.870628 100.792366,137.564117 
	C99.939850,138.780716 99.030815,140.077972 97.519592,141.687149 
	C77.049644,141.999374 57.181805,141.974854 37.314232,142.036484 
	C35.213326,142.042999 33.113995,142.555405 31.013931,142.833099 
z"/>
<path fill="#79D3BE" opacity="1.000000" stroke="none" 
	d="
M170.836380,179.996765 
	C164.804367,189.239685 158.772369,198.482605 152.033691,207.721085 
	C149.211975,207.477798 147.098434,207.048050 144.981689,207.031647 
	C132.925873,206.938202 120.869286,206.943359 108.812973,206.914978 
	C112.622849,198.075134 116.430122,189.234146 120.247314,180.397446 
	C120.567307,179.656677 120.953926,178.944687 121.860252,178.379608 
	C124.428841,179.026459 126.443291,179.917206 128.465271,179.934662 
	C142.588089,180.056534 156.712494,179.997726 170.836380,179.996765 
z"/>
<path fill="#67B5DE" opacity="1.000000" stroke="none" 
	d="
M340.661865,335.979126 
	C342.868408,336.224548 344.761047,336.934052 346.659454,336.949768 
	C358.954468,337.051636 371.251404,336.936096 383.545837,337.068542 
	C385.566711,337.090302 387.578217,337.983704 389.822021,338.800720 
	C383.071869,351.253601 374.030396,361.732635 363.980316,371.357239 
	C363.104187,372.196259 360.052460,372.444611 359.665375,371.864197 
	C352.432861,361.019501 343.257324,352.089569 331.880920,343.673767 
	C334.969269,340.920227 337.659943,338.521301 340.661865,335.979126 
z"/>
<path fill="#88ECA3" opacity="1.000000" stroke="none" 
	d="
M237.092590,32.461819 
	C250.083420,31.998474 263.000427,31.998764 276.375549,31.998615 
	C276.833618,41.459938 276.833618,50.921700 276.833618,60.690582 
	C263.684753,60.690582 250.633087,60.690582 237.018768,60.690582 
	C237.018768,51.444916 237.018768,42.185181 237.092590,32.461819 
z"/>
<path fill="#7CD8B9" opacity="1.000000" stroke="none" 
	d="
M171.002747,179.677612 
	C156.712494,179.997726 142.588089,180.056534 128.465271,179.934662 
	C126.443291,179.917206 124.428841,179.026459 122.181686,178.215424 
	C126.056412,171.682571 130.160370,165.474182 134.574066,159.115814 
	C137.826614,159.310562 140.765686,159.914322 143.712875,159.956848 
	C159.765747,160.188522 175.820633,160.281952 192.388397,160.610107 
	C187.343155,165.311157 181.747513,169.780838 176.246368,174.363937 
	C174.428619,175.878342 172.854599,177.685287 171.002747,179.677612 
z"/>
<path fill="#7DDAB7" opacity="1.000000" stroke="none" 
	d="
M31.330666,142.986801 
	C33.113995,142.555405 35.213326,142.042999 37.314232,142.036484 
	C57.181805,141.974854 77.049644,141.999374 97.375473,141.998718 
	C92.380287,151.335068 87.012642,160.724350 81.352692,169.934006 
	C80.728058,170.950378 77.900803,171.821030 76.988899,171.272751 
	C62.021835,162.273758 47.197845,153.036774 32.348133,143.842926 
	C32.074482,143.673492 31.879232,143.377457 31.330666,142.986801 
z"/>
<path fill="#76CEC3" opacity="1.000000" stroke="none" 
	d="
M108.470078,207.101227 
	C120.869286,206.943359 132.925873,206.938202 144.981689,207.031647 
	C147.098434,207.048050 149.211975,207.477798 151.717590,207.882965 
	C150.385986,213.088959 148.732346,218.153931 146.887100,223.148132 
	C146.490723,224.220901 145.506805,225.734146 144.615982,225.868698 
	C129.763947,228.111816 115.876541,233.287079 100.679916,240.443298 
	C103.353973,228.538223 105.740585,217.912842 108.470078,207.101227 
z"/>
<path fill="#000000" opacity="1.000000" stroke="none" 
	d="
M104.783463,351.376770 
	C109.925331,335.291992 119.949600,323.404694 133.673294,313.985107 
	C143.831573,307.971283 154.315598,304.502472 165.902359,303.893402 
	C177.877151,303.263916 189.221024,305.145020 200.508606,310.014709 
	C211.888107,316.573273 222.117279,324.078430 228.685593,335.336884 
	C231.987473,340.996521 234.267334,347.252441 237.087997,353.619263 
	C240.479248,369.214752 240.016373,384.663605 240.060654,400.807251 
	C240.395798,401.631866 240.691956,401.732666 240.988113,401.833496 
	C248.683243,401.881805 256.378387,401.930115 264.537323,401.906158 
	C268.004089,402.386688 271.086639,402.671814 273.996674,403.537079 
	C289.271729,408.078796 301.401306,421.095337 300.094727,440.546265 
	C299.423309,456.740540 284.505402,471.843353 269.111725,471.956116 
	C208.903732,472.397034 148.694672,472.803741 88.485474,472.904968 
	C72.937691,472.931091 59.690910,466.967682 49.974785,454.378357 
	C48.413319,452.355103 47.408211,449.902466 45.981369,447.326538 
	C41.120220,437.354401 41.169270,427.259552 43.293236,416.483093 
	C43.677998,415.647308 43.775421,415.325653 43.872849,415.004028 
	C43.902493,414.835297 43.932133,414.666595 43.897636,414.249084 
	C49.916779,399.500916 60.314613,389.688507 75.670967,385.909454 
	C81.455292,384.485992 87.589882,384.485931 93.801079,383.478638 
	C94.476051,383.073669 94.914734,383.026978 96.065491,382.979156 
	C97.796341,382.318573 98.815125,381.659119 99.833908,380.999664 
	C101.466011,371.251526 103.098114,361.503357 104.783463,351.376770 
z"/>
<path fill="#64B0E3" opacity="1.000000" stroke="none" 
	d="
M43.705338,415.170959 
	C43.775421,415.325653 43.677998,415.647308 43.316917,416.057648 
	C43.170376,415.850250 43.331902,415.580780 43.705338,415.170959 
z"/>
<path fill="#62ACE8" opacity="1.000000" stroke="none" 
	d="
M240.870346,401.678284 
	C240.691956,401.732666 240.395798,401.631866 240.133072,401.271759 
	C240.385162,401.155914 240.580521,401.326141 240.870346,401.678284 
z"/>
<path fill="#64B0E3" opacity="1.000000" stroke="none" 
	d="
M99.492493,381.004578 
	C98.815125,381.659119 97.796341,382.318573 96.388702,382.905945 
	C97.050262,382.225708 98.100677,381.617584 99.492493,381.004578 
z"/>
</svg>